<svg width="343" height="265" viewBox="0 0 343 265" fill="none" xmlns="http://www.w3.org/2000/svg">
<path d="M173.792 137.947C205.48 127.763 262.816 65.4338 287.523 35.5425C289.47 31.6055 294.656 22.2396 299.827 16.2728C306.291 8.81417 351.127 11.0367 341.691 9.70459C332.254 8.37246 291.967 2.05374 262.651 0.600532C233.335 -0.852677 134.818 45.2595 148.709 44.2194C162.6 43.1794 135.167 85.9006 130.617 89.9968C126.068 94.0929 123.391 111.247 115.012 122.068C108.309 130.725 94.1841 149.559 87.9597 157.893L91.5464 139.92C89.5997 143.857 84.7774 152.895 81.0618 157.551C76.4173 163.372 36.1407 188.169 21.4879 203.001C6.835 217.833 -1.29083 271.019 0.814581 264.208C2.92002 257.398 71.5398 189.06 79.0091 179.058C86.4784 169.056 134.182 150.677 173.792 137.947Z" fill="#252525"/>
</svg>
