<svg width="295" height="321" viewBox="0 0 295 321" fill="none" xmlns="http://www.w3.org/2000/svg">
<path d="M92.4381 70.5396C89.3951 59.4342 106.104 19.2703 114.839 0.576451C99.9346 -2.688 69.9121 26.8878 66.3907 40.0208C62.8693 53.1539 45.7158 71.8577 35.1238 86.0091C24.5318 100.161 -7.27178 117.367 2.58442 123.162C10.4694 127.799 111.502 182.028 161.033 208.563C162.211 208.394 166.791 208.456 175.683 210.061C184.575 211.666 258.605 284.695 294.508 321.009C292.257 295.36 222.942 237.524 188.566 211.813C198.167 215.841 217.571 222.786 218.375 218.342C219.379 212.786 173.11 167.143 167.044 162.605C160.978 158.068 64.4795 139.5 58.6676 136.729C52.8556 133.959 42.2498 135.486 71.5223 113.234C100.795 90.9803 96.2417 84.4213 92.4381 70.5396Z" fill="#252525"/>
</svg>
