<svg width="121" height="121" viewBox="0 0 121 121" fill="none" xmlns="http://www.w3.org/2000/svg">
<rect width="120" height="120" transform="translate(0.5 0.5)" fill="white"/>
<path d="M51.4834 58.1566C51.8416 57.9913 52.1585 58.0188 52.434 58.2392C52.7095 58.4597 52.8335 58.7628 52.806 59.1485C52.806 59.5067 52.6269 59.7684 52.2687 59.9338C51.4421 60.292 50.4777 60.7466 49.3756 61.2976C50.4502 63.4192 50.8359 65.6648 50.5328 68.0344C49.9818 72.3603 47.4193 76.8652 42.8455 81.5493C38.3819 86.0955 33.7391 89.2642 28.9173 91.0551C24.4262 92.7083 21.478 92.4052 20.0727 90.1459C17.8685 86.5915 19.7834 81.6733 25.8176 75.3911C31.1078 69.8805 38.0237 64.9347 46.5652 60.5537C45.7661 59.7271 44.788 59.0796 43.6307 58.6112C42.5011 58.1428 41.2336 57.8673 39.8284 57.7846C38.4232 57.702 37.1557 57.6882 36.0261 57.7433C34.8964 57.7984 33.5876 57.9224 32.0997 58.1153C31.2731 58.1979 30.1986 58.3495 28.876 58.5699C27.5534 58.7628 26.2998 58.9418 25.115 59.1072C23.9577 59.2725 22.8832 59.3965 21.8913 59.4791C20.9544 59.6169 19.8523 59.6582 18.5849 59.6031C17.3174 59.5205 16.2704 59.2587 15.4438 58.8179C14.5897 58.3219 13.9973 57.6882 13.6666 56.9167C13.336 56.1452 13.2533 55.3186 13.4186 54.4369C13.6115 53.5276 13.8733 52.6873 14.2039 51.9158C14.5345 51.1443 14.9341 50.3866 15.4025 49.6426C18.3231 45.0964 22.9521 40.8394 29.2893 36.8717C32.0997 35.1083 34.8137 33.7307 37.4313 32.7387C40.0488 31.7193 42.6251 31.3197 45.16 31.5402C48.2184 31.8157 50.0782 32.9729 50.7395 35.0119C50.8772 35.5354 50.9599 36.0727 50.9875 36.6237C51.0426 37.1473 50.9875 37.7259 50.8221 38.3596C50.6844 38.9933 50.5604 39.5306 50.4502 39.9715C50.34 40.3848 50.1195 40.9634 49.7889 41.7073C49.4583 42.4237 49.2241 42.9059 49.0863 43.1539C48.9761 43.4018 48.7419 43.8978 48.3837 44.6417C48.1908 44.9999 47.9015 45.1928 47.5158 45.2203C47.1576 45.2479 46.8683 45.1377 46.6478 44.8897C46.4274 44.6142 46.3998 44.2973 46.5652 43.9391C46.6478 43.7738 46.7718 43.5396 46.9371 43.2365C47.1025 42.9059 47.2402 42.6303 47.3504 42.4099C47.4606 42.1895 47.5984 41.914 47.7637 41.5833C47.9291 41.2251 48.0668 40.922 48.177 40.6741C48.2872 40.3985 48.4112 40.0954 48.549 39.7648C48.6868 39.4342 48.7832 39.1311 48.8383 38.8556C48.921 38.5525 48.9898 38.2494 49.045 37.9463C49.1001 37.6432 49.1138 37.3539 49.0863 37.0784C49.0863 36.7753 49.0587 36.486 49.0036 36.2104C48.5903 34.3919 46.9922 33.4689 44.2094 33.4413C41.454 33.3862 38.0926 34.3506 34.1249 36.3344C30.5981 38.0978 27.2917 40.2332 24.2057 42.7406C21.1473 45.2479 18.6951 47.9894 16.849 50.9652C15.0856 53.8032 14.7963 55.7732 15.9811 56.8754C16.3117 57.1784 16.725 57.4126 17.221 57.578C17.7445 57.7433 18.3644 57.8259 19.0808 57.8259C19.7972 57.7984 20.3621 57.7708 20.7754 57.7433C21.2162 57.7157 21.8499 57.6331 22.6765 57.4953C23.5307 57.3575 24.0129 57.2887 24.1231 57.2887C25.0048 57.1784 26.2722 56.9856 27.9254 56.71C29.5786 56.407 30.9838 56.1865 32.1411 56.0488C33.3258 55.8834 34.6484 55.7457 36.1087 55.6355C37.569 55.4977 38.9605 55.5115 40.283 55.6768C41.6331 55.8421 42.9006 56.1314 44.0854 56.5447C45.7937 57.1509 47.2127 58.1841 48.3423 59.6445C49.472 59.0934 50.5191 58.5974 51.4834 58.1566ZM48.549 64.5627C48.3561 63.681 48.0668 62.8682 47.6811 62.1242C36.5771 67.69 28.6418 73.8895 23.8751 80.7227C23.5445 81.1911 23.2276 81.6733 22.9245 82.1692C22.6214 82.6652 22.3046 83.2713 21.9739 83.9877C21.6708 84.7317 21.4366 85.4205 21.2713 86.0542C21.1335 86.6879 21.1198 87.3217 21.23 87.9554C21.3402 88.5891 21.6157 89.1126 22.0566 89.5259C23.0209 90.4627 24.9772 90.4076 27.9254 89.3606C32.9125 87.5972 37.6517 84.3184 42.1429 79.5241C47.2953 73.9859 49.4307 68.9988 48.549 64.5627Z" fill="black"/>
<path d="M73.7464 55.4932C73.4984 54.3635 73.0851 53.3578 72.5065 52.4761C71.9555 51.5669 71.2666 50.8091 70.44 50.203C69.641 49.5968 68.7455 49.1422 67.7536 48.8391C66.7892 48.5084 65.7698 48.3431 64.6952 48.3431C62.7389 48.3431 61.0582 48.7151 59.6529 49.459C58.2477 50.203 57.0905 51.1949 56.1812 52.4348C55.2995 53.6471 54.6383 55.0248 54.1974 56.5678C53.7841 58.1107 53.5775 59.6951 53.5775 61.3207C53.5775 62.9188 53.7841 64.5031 54.1974 66.0736C54.6383 67.6166 55.2995 69.008 56.1812 70.2479C57.0905 71.4603 58.2477 72.4384 59.6529 73.1824C61.0582 73.9263 62.7389 74.2983 64.6952 74.2983C66.0728 74.2983 67.3127 74.0503 68.4149 73.5543C69.517 73.0584 70.4676 72.3833 71.2666 71.5292C72.0657 70.675 72.7132 69.6831 73.2091 68.5534C73.7051 67.3962 74.022 66.1563 74.1597 64.8337H76.9701C76.7773 66.6522 76.3502 68.2917 75.6889 69.752C75.0276 71.2123 74.1735 72.4522 73.1265 73.4717C72.0795 74.4911 70.8396 75.2764 69.4068 75.8275C68.0016 76.3785 66.431 76.6541 64.6952 76.6541C62.3807 76.6541 60.3418 76.2408 58.5784 75.4142C56.8425 74.56 55.396 73.4303 54.2387 72.0251C53.0815 70.6199 52.2136 68.9943 51.635 67.1482C51.0563 65.3021 50.767 63.3596 50.767 61.3207C50.767 59.2818 51.0563 57.3393 51.635 55.4932C52.2136 53.6471 53.0815 52.0215 54.2387 50.6163C55.396 49.1835 56.8425 48.0538 58.5784 47.2272C60.3418 46.3731 62.3807 45.946 64.6952 45.946C66.1004 45.946 67.4643 46.1526 68.7868 46.5659C70.1369 46.9792 71.3493 47.5992 72.4239 48.4258C73.526 49.2248 74.4353 50.2167 75.1516 51.4015C75.8956 52.5863 76.364 53.9502 76.5569 55.4932H73.7464ZM80.7354 46.5659H83.3391V58.4276H83.4218C83.9178 57.1326 84.7995 56.0994 86.0669 55.3279C87.3344 54.5288 88.7258 54.1293 90.2412 54.1293C91.7291 54.1293 92.969 54.3222 93.9609 54.7079C94.9804 55.0937 95.7932 55.6447 96.3994 56.3611C97.0055 57.0499 97.4326 57.9041 97.6806 58.9236C97.9286 59.943 98.0526 61.0865 98.0526 62.3539V76.0754H95.4488V62.7672C95.4488 61.858 95.3661 61.0176 95.2008 60.2461C95.0355 59.4471 94.7462 58.7582 94.3329 58.1796C93.9196 57.601 93.3547 57.1464 92.6383 56.8157C91.9495 56.4851 91.0816 56.3198 90.0346 56.3198C88.9875 56.3198 88.0507 56.5127 87.2241 56.8984C86.4251 57.2566 85.7363 57.7663 85.1576 58.4276C84.6066 59.0613 84.1657 59.8328 83.8351 60.7421C83.532 61.6238 83.3667 62.5881 83.3391 63.6352V76.0754H80.7354V46.5659ZM103.017 46.5659H105.62V50.7403H103.017V46.5659ZM103.017 54.7492H105.62V76.0754H103.017V54.7492Z" fill="black"/>
</svg>
