<svg width="706" height="692" viewBox="0 0 706 692" fill="none" xmlns="http://www.w3.org/2000/svg">
<path d="M87.9232 73.4074C84.6916 66.7468 86.7432 27.7754 88.1731 9.12223C86.9427 3.26415 84.1579 -5.63121 82.8618 5.65204C81.5656 16.9353 27.507 131.239 0.639648 186.98C1.65995 186.383 6.50709 184.37 17.7332 181.089C31.766 176.989 68.7769 184.111 86.3879 186.139C103.999 188.168 126.516 197.192 142.507 213.325C158.497 229.457 165.708 247.441 173.326 261.896C180.944 276.351 188.855 275.833 199.478 282.774C210.1 289.714 204.844 291.967 208.423 298.096C212.001 304.225 249.642 330.714 265.632 346.847C281.622 362.981 331.157 391.554 352.402 405.435C373.648 419.315 390.616 445.567 404.817 458.636C419.018 471.706 525.232 584.697 545.667 605.631C566.101 626.565 596.586 640.795 626.608 652.828C650.627 662.455 689.346 682.445 705.705 691.238C681.691 664.177 625.629 642.711 594.74 632.007C563.851 621.303 553.578 605.112 550.461 601.181C547.343 597.248 408.115 436.148 384.159 414.809C360.202 393.469 358.818 386.878 351.256 378.147C343.694 369.415 269.922 290.887 263.688 283.023C257.454 275.159 244.232 272.206 235.454 274.054C226.677 275.901 222.638 267.575 221.254 260.984C219.87 254.393 204.747 236.93 184.829 223.917C164.912 210.904 144.938 192.167 134.259 179.504C123.58 166.84 107.366 127.813 109.854 112.378C112.342 96.9436 91.9628 81.7334 87.9232 73.4074Z" fill="#252525"/>
</svg>
