<svg width="135" height="39" viewBox="0 0 135 39" fill="none" xmlns="http://www.w3.org/2000/svg">
<g clip-path="url(#clip0_2003_12)">
<path d="M0.553369 0.00512695V0.852821H135V0.00512695H0.553369ZM0.553369 38.1475V38.9952H135V38.1475H0.553369ZM89.1735 30.6176C95.0954 28.1278 97.2065 24.8963 97.2065 18.5394C97.2065 10.752 94.0653 6.93754 85.9295 6.93754C79.0295 6.93754 75.0132 10.9638 75.0132 18.2213C75.0132 24.7372 77.2786 28.8694 81.81 30.4588C83.4578 31.0415 85.3632 30.4588 88.8131 32.5248C94.0654 35.6501 94.0653 35.7034 95.404 35.7034C96.1762 35.7034 96.5882 35.3855 96.5882 34.9618C96.5882 34.167 95.0952 34.9618 93.2412 32.6307C92.5718 31.783 91.439 31.1474 89.4822 30.6707L89.1735 30.6176ZM86.0905 8.57775C91.0335 8.57775 93.6597 12.2861 93.6597 18.9079C93.6597 25.6358 91.3428 29.3972 86.1417 29.3972C81.4562 29.3972 78.4696 25.7946 78.4696 18.9611C78.4696 12.3391 81.4046 8.57775 86.0905 8.57775ZM18.1768 7.42042C15.3961 7.04963 13.1305 6.7317 10.2984 6.7317C3.60449 6.7317 0 10.811 0 18.5452C0 26.7563 4.32513 30.9944 11.9977 30.9944C14.2633 30.9944 16.22 30.6764 17.1983 30.0938C18.3311 29.4582 18.949 27.1801 18.949 26.9683C18.949 26.5975 18.8976 26.4914 18.7947 26.4914C18.4856 26.4914 16.0139 29.2461 12.152 29.2461C7.05428 29.2461 4.01628 25.3262 4.01628 18.5983C4.01628 12.0293 6.89976 8.5328 12.2551 8.5328C16.7863 8.5328 17.7648 10.387 18.2795 10.387C18.4342 10.387 18.4854 10.3339 18.4854 10.228C18.4854 9.91026 18.228 8.5328 18.1766 7.68511L18.1768 7.42042ZM44.9459 7.41078C45.8212 11.384 45.9242 12.1786 45.9242 19.5951C45.9242 24.1507 45.8212 28.0712 45.7183 31.0376V31.3555H49.1169C47.8295 29.6603 47.778 29.4483 47.778 27.5943L48.1899 12.4964L61.6294 31.3555H63.6378L63.3803 7.41078H60.3421C61.5265 8.94701 61.5781 9.05311 61.6294 11.1191L60.96 24.045L49.1169 7.41078H44.9459ZM99.8421 7.40866C100.46 15.2491 100.46 15.2491 100.46 17.739C100.46 19.858 100.357 21.3943 100.357 22.9307C100.357 29.2876 102.468 31.8834 108.905 31.8834C116.217 31.8834 117.555 29.2876 117.555 22.2948V7.40866H114.363C115.032 8.78611 115.445 9.63361 115.445 11.0639L115.239 19.434C115.239 29.3407 113.694 30.1353 109.42 30.1353C103.962 30.1353 103.91 26.7449 103.91 19.3281C103.91 17.1033 104.116 11.0639 104.477 7.62048V7.40866H99.8421ZM120.594 7.41406C121.212 13.0826 121.314 14.5656 121.314 19.7045C121.314 22.5651 121.314 22.5651 120.645 30.9353V31.1472C123.529 30.8823 125.28 30.7764 126.721 30.7764C129.296 30.7764 130.841 31.1472 132.231 31.1472C134.136 31.1472 134.909 30.6176 134.909 27.8096V27.5978C133.982 28.7102 133.003 29.3989 131.407 29.3989C129.553 29.3989 127.082 29.0281 124.868 28.5514L124.61 28.4984L124.919 19.6516H134.033C133.93 19.1218 133.93 19.0159 133.93 18.698C133.93 18.4331 133.93 18.2743 133.982 17.9034L134.033 17.6915H124.919V9.79817C128.06 9.58635 131.767 9.21555 132.797 9.21555C133.415 9.21555 133.466 9.26841 134.702 10.3279L134.805 10.434L134.445 7.41425L120.594 7.41406ZM21.1565 7.41078C21.6198 11.4899 21.8773 14.5624 21.8773 22.0319C21.8773 24.8396 21.7743 27.1707 21.5684 31.1437V31.3555C23.937 31.1968 25.2243 31.0906 26.8207 31.0906C29.3439 31.0906 29.4982 31.3027 31.455 31.3027C32.9998 31.3027 33.7722 30.8788 33.9267 30.7199C34.0296 30.667 34.905 29.1308 34.905 28.0712C34.905 27.7004 34.7505 27.6474 34.6475 27.6474C34.2871 27.6474 33.6692 29.5016 31.5066 29.5016C29.7043 29.5016 28.6229 28.9718 25.8938 28.9718H25.5851C25.5851 18.4827 25.5851 13.0792 25.8426 7.6226V7.41078H21.1565ZM36.764 7.41078C37.2274 13.6618 37.3305 15.781 37.3305 20.7075C37.3305 24.8927 37.279 26.0579 37.0215 31.1439V31.3557H41.038C40.8319 26.7997 40.7805 23.8334 40.7805 18.6947C40.7805 17.1583 40.7805 17.1583 41.0894 7.6228V7.41097L36.764 7.41078ZM68.1138 7.41078C68.5774 13.2381 68.6803 15.8869 68.6803 20.5487C68.6803 24.7335 68.5772 28.548 68.3713 31.1439V31.3557H72.3878C72.2334 26.694 72.1303 23.4626 72.1303 18.8006C72.1303 17.3701 72.1303 17.3173 72.4392 7.6228V7.41097L68.1138 7.41078Z" fill="white"/>
</g>
<defs>
<clipPath id="clip0_2003_12">
<rect width="135" height="39" fill="white"/>
</clipPath>
</defs>
</svg>
