<svg width="135" height="31" viewBox="0 0 135 31" fill="none" xmlns="http://www.w3.org/2000/svg">
<path d="M15.8819 5.84912H17.8837V17.1999H15.9115V10.3071L12.456 17.1999H11.0292L7.57111 10.3071V17.1999H5.60156V5.84912H7.60337L11.7413 14.1153L15.8819 5.84912ZM38.2239 10.5455L34.7471 5.84912H32.1542L37.2326 12.5602V17.1999H39.2048V12.5602L44.2939 5.84912H41.7844L38.2239 10.5455ZM62.8662 12.3361H69.3849V10.3497H62.8662V7.83552H69.6616V5.84912H60.8939V17.1999H69.7394V15.1851H62.8662V12.3361ZM82.8008 15.1737H76.6609V5.84912H74.6913V17.1999H82.8008V15.1737ZM94.9861 15.1737H88.8467V5.84912H86.8772V17.1999H94.9861V15.1737ZM100.881 5.84912H98.9118V17.1999H100.881V5.84912ZM113.599 13.5903L107.588 5.84912H105.825V17.1999H107.795V9.44448L113.706 17.0693L113.795 17.1856H115.563V5.84912H113.594L113.599 13.5903ZM129.299 15.1851H122.425V12.3474H128.933V10.361H122.425V7.83552H129.218V5.84912H120.454V17.1999H129.299V15.1851ZM28.8841 13.9989H24.585L23.22 17.1999H21.0302L25.9607 5.84912H27.5192L32.4498 17.1999H30.2625L28.8841 13.9989ZM26.7346 9.03013C26.3799 9.85023 25.7646 11.2719 25.4529 11.9984H28.019C27.7126 11.2748 27.0973 9.85877 26.7399 9.03013H26.7346ZM56.4764 13.7464C56.4926 14.621 56.1784 15.4663 55.6031 16.096C54.9264 16.8196 53.9349 17.1856 52.6477 17.1856H47.0051V5.84912H52.7362C54.8861 5.84912 56.1487 7.02958 56.1487 9.0103C56.1817 9.83157 55.8759 10.6276 55.3107 11.1925C56.3851 11.9955 56.4764 13.3236 56.4764 13.7464ZM54.1926 9.05002C54.1926 8.01994 53.7411 7.84687 52.3844 7.84687H48.9881V10.3383H52.4813C53.9887 10.3383 54.1926 9.68563 54.1926 9.05002ZM52.3709 12.3361H48.9881V15.1737H52.5267C54.3029 15.1737 54.5069 14.3224 54.5069 13.6783C54.5046 12.5318 53.8487 12.3361 52.3709 12.3361ZM78.9721 23.315L76.0323 19.47H74.6891V25.012H75.9489V21.1527L78.9049 25.012H80.2482V19.47H78.9827L78.9721 23.315ZM83.5666 22.617H86.9253V21.6891H83.5772V20.4319H87.2077V19.47H82.2608V25.012H87.2855V24.0386H83.5772L83.5666 22.617ZM95.3894 23.4399L94.1263 19.4671H92.8261L91.531 23.4399L90.3676 19.4671H89.0237L90.8134 24.9666L90.8297 25.0205H92.1382L93.4653 21.0194L94.7576 25.012H96.0476L97.9287 19.4586H96.5848L95.3894 23.4399ZM103.794 21.8252L102.082 19.47H100.537L103.12 22.8553V25.0233H104.434V22.844L107.005 19.47H105.508L103.794 21.8252ZM114.117 22.2481C114.117 23.9507 112.774 25.151 110.85 25.151C108.926 25.151 107.599 23.9563 107.599 22.2481C107.599 20.5398 108.942 19.3423 110.863 19.3423C112.785 19.3423 114.131 20.5369 114.131 22.2481H114.117ZM112.801 22.2481C112.801 20.7895 111.75 20.2617 110.85 20.2617C109.41 20.2617 108.9 21.3286 108.9 22.2481C108.9 23.1675 109.41 24.2345 110.85 24.2345C111.764 24.2231 112.812 23.7066 112.812 22.2481H112.801ZM121.579 24.8786L121.738 25.0177H120.246L120.225 24.9864C120.067 24.7358 119.999 24.4341 120.032 24.1351C120.032 23.2214 119.843 22.7872 118.779 22.7872H117.138V25.0091H115.821V19.47H119.078C120.548 19.47 121.356 20.0176 121.356 21.008C121.367 21.6219 120.996 22.1709 120.442 22.3587C120.94 22.4934 121.278 22.9808 121.249 23.5222C121.257 24.1862 121.383 24.6941 121.592 24.8786H121.579ZM118.957 20.3922H117.138V21.9217H118.991C119.478 21.9217 120.066 21.7855 120.066 21.1386C120.066 20.6051 119.728 20.3922 118.97 20.3922H118.957ZM129.28 19.47H127.59L124.723 21.8451V19.47H123.406V25.012H124.723V23.1589L125.591 22.4637L127.74 25.0177H129.398L126.515 21.7004L129.28 19.47Z" fill="white"/>
</svg>
