<svg width="136" height="17" viewBox="0 0 136 17" fill="none" xmlns="http://www.w3.org/2000/svg">
<path fill-rule="evenodd" clip-rule="evenodd" d="M47.9228 7.032C48.4257 7.29751 49.0603 7.43027 49.8032 7.43027C50.546 7.43027 51.1651 7.29751 51.6913 7.032C52.2252 6.78862 52.4729 6.47885 52.4729 6.13222C52.4729 5.76345 52.2252 5.47581 51.6913 5.23243C51.1651 4.96692 50.5615 4.84154 49.8032 4.86366C49.0603 4.83416 48.4412 4.96692 47.9228 5.23243C47.3966 5.47581 47.1489 5.76345 47.1489 6.13222C47.1489 6.47885 47.3966 6.79599 47.9228 7.032Z" fill="white"/>
<path fill-rule="evenodd" clip-rule="evenodd" d="M85.7943 7.00247C86.2973 7.24586 86.9319 7.37124 87.6825 7.37124C88.4331 7.37124 89.0444 7.23848 89.5629 7.00247C90.0968 6.73696 90.3444 6.44195 90.3444 6.10269C90.3444 5.73392 90.0968 5.41679 89.5629 5.18078C89.0367 4.94477 88.4021 4.81201 87.6825 4.81201C86.9628 4.81201 86.3283 4.94477 85.7943 5.18078C85.2681 5.41679 85.0205 5.73392 85.0205 6.10269C85.0205 6.44195 85.2681 6.73696 85.7943 7.00247Z" fill="white"/>
<path fill-rule="evenodd" clip-rule="evenodd" d="M134.623 14.031H102.145C95.3354 13.2049 94.7086 10.3876 94.5229 9.37717C94.5229 9.30342 94.492 8.75765 94.4842 8.57327C94.492 8.54377 94.5074 8.52164 94.5074 8.49214C95.1033 5.44615 97.5795 3.74983 102.052 3.30731H134.538C135.304 3.30731 135.915 2.71729 135.915 1.98714C135.915 1.25698 135.304 0.666959 134.538 0.666959H101.952C101.905 0.666959 101.859 0.666955 101.812 0.674331C94.5771 1.38236 92.3562 5.04788 91.7836 7.99799C91.7216 8.15287 91.6907 8.32988 91.6984 8.51427L91.7681 9.67956C91.7681 9.73119 91.7681 9.72381 91.7681 9.76806C91.977 10.9334 92.4413 11.9585 93.1378 12.8436L86.9858 9.58368L69.5592 0.36457C69.1259 0.0253065 68.4991 -0.0410681 67.9806 0.246568L44.5336 13.2787V1.57412C44.5336 0.843963 43.9145 0.253939 43.1407 0.253939C43.0091 0.253939 42.8853 0.276065 42.7692 0.305566C42.5835 0.305566 42.3901 0.349822 42.2121 0.43095L21.4116 9.9967C21.311 10.041 21.2259 10.0999 21.1407 10.159L18.9121 11.2136L21.311 12.3642C21.5122 12.46 21.7288 12.5043 21.9455 12.5043C22.1699 12.519 22.4021 12.4822 22.6187 12.3789L41.7633 3.57282V15.3585C41.7633 15.7568 41.949 16.1034 42.2276 16.3468C42.6532 16.8262 43.396 16.9663 43.9842 16.6345L52.2641 12.0323C52.2641 12.0323 52.2951 12.0397 52.3028 12.0397L56.9767 9.41405L68.677 2.91642L80.9654 9.41405H59.3756L54.6243 12.0544H85.9566L94.9563 16.8336C95.6295 17.1876 96.473 16.959 96.8444 16.3173C96.9914 16.0666 97.0379 15.7937 97.0069 15.5282C98.3688 16.0592 99.9939 16.4427 101.867 16.664C101.921 16.664 101.975 16.6787 102.037 16.6787H134.615C135.381 16.6787 136 16.0887 136 15.3512C136 14.6136 135.381 14.031 134.615 14.031H134.623Z" fill="white"/>
<path fill-rule="evenodd" clip-rule="evenodd" d="M2.07386 0.143252C1.39289 -0.188636 0.557157 0.0768699 0.208934 0.725895C0.116075 0.902902 0.0696445 1.09466 0.0619062 1.27904C0.0309531 1.39705 0 1.51506 0 1.64044V15.4322C0 16.1624 0.619063 16.7598 1.38515 16.7598C2.15124 16.7598 2.77031 16.1698 2.77031 15.4322V3.44738L17.5736 10.5645L20.6844 9.10422L2.05838 0.143252H2.07386Z" fill="white"/>
</svg>
