<svg width="152" height="51" viewBox="0 0 152 51" fill="none" xmlns="http://www.w3.org/2000/svg">
<path d="M102.174 42.7791V8.19653H107.114V42.7791H102.174Z" fill="white"/>
<path d="M58.5914 15.0711V18.3061H63.3338V14.2623C62.8358 9.03642 59.1526 7.77661 56.4257 7.77661C53.6989 7.77661 49.3755 9.13752 49.3755 15.0322C49.3755 20.9268 49.415 22.0311 54.7975 25.7017C58.1646 28.0346 59.0498 29.4655 59.1605 31.4563C59.1605 31.4563 59.2395 34.3881 59.1605 35.8346C58.8997 40.5005 54.1731 39.3574 54.1652 36.1845C54.1652 34.4426 54.1652 31.1064 54.1652 31.1064H49.3359V36.1456C49.3359 40.5394 52.3157 43.1446 56.6392 43.2223C59.121 43.2612 63.9424 42.2814 64.0451 36.2234V30.1654C63.808 25.7017 61.0337 24.0297 58.9076 22.4588C56.7814 20.888 54.1652 19.807 54.015 17.404V15.0711C54.015 10.7473 58.5756 10.8173 58.5835 15.0711H58.5914Z" fill="white"/>
<path d="M13.3733 8.21997L18.2342 27.3737L23.0872 8.21997H28.5646V42.7947H23.6168V21.4791L19.894 42.7947H16.527L12.8517 21.4791V42.7947H7.90381V8.21997H13.3733Z" fill="white"/>
<path d="M89.1167 27.4281H94.0962V42.7791H99.044V8.19653H94.0962V23.112H89.1167V8.19653H84.1768V42.7791H89.1167V27.4281Z" fill="white"/>
<path d="M121.025 26.106V8.20431H125.965V42.7791H121.807L115.358 21.8989V42.7791H110.402V8.19653H115.5L121.025 26.106Z" fill="white"/>
<path d="M128.929 16.8053C128.929 13.5313 130.509 7.78442 136.524 7.78442C142.539 7.78442 144.096 13.3369 144.096 16.8053V34.1937C144.096 37.6465 142.516 43.2224 136.524 43.2224C130.533 43.2224 128.929 37.6465 128.929 34.1937V16.8053ZM133.877 34.1937C133.877 37.421 135.307 38.502 136.524 38.502C137.742 38.502 139.148 37.4288 139.148 34.1937V16.8053C139.148 13.5547 137.718 12.497 136.501 12.497C135.283 12.497 133.853 13.5547 133.853 16.8053V34.1937H133.877Z" fill="white"/>
<path d="M31.4258 16.8053C31.4258 13.5313 33.0066 7.78442 39.0214 7.78442C45.0363 7.78442 46.5934 13.3369 46.5934 16.8053V34.1937C46.5934 37.6465 45.0126 43.2224 39.0214 43.2224C33.0303 43.2224 31.4258 37.6465 31.4258 34.1937V16.8053ZM36.3973 34.1937C36.3973 37.421 37.8042 38.5253 39.0214 38.5253C40.2386 38.5253 41.6692 37.4599 41.6692 34.2171V16.8053C41.6692 13.5547 40.2386 12.497 39.0214 12.497C37.8042 12.497 36.3973 13.5547 36.3973 16.8053V34.1937Z" fill="white"/>
<path d="M81.4497 31.052V34.1626C81.4497 38.3387 80.0903 43.1913 74.1386 43.1913C68.187 43.1913 66.543 37.6154 66.543 34.1626V16.8053C66.543 13.5313 68.1238 7.78442 74.1386 7.78442C80.1535 7.78442 81.1494 12.5826 81.1494 16.8053V19.5815H76.66V16.8053C76.66 13.8891 75.7273 12.497 74.1544 12.497C72.9767 12.497 71.5066 13.4147 71.5066 16.8053V34.1937C71.5066 36.8533 72.5104 38.502 74.1544 38.502C75.5455 38.502 76.66 37.4677 76.66 34.1937V31.0831H81.4023L81.4497 31.052Z" fill="white"/>
</svg>
