<svg width="119" height="58" viewBox="0 0 119 58" fill="none" xmlns="http://www.w3.org/2000/svg">
<g clip-path="url(#clip0_2003_33)">
<path fill-rule="evenodd" clip-rule="evenodd" d="M0 1.6711H12.6522C15.6816 1.6711 18.6554 1.89739 21.6009 2.37874C24.5181 2.83234 27.2672 4.13486 29.8484 6.23028C32.2609 8.29797 34.1403 10.932 35.487 14.1319C36.8617 17.3318 37.6191 20.6173 37.7313 24.0157C37.7875 24.2423 37.8155 24.4973 37.8155 24.7519C37.8155 24.9787 37.8155 25.2335 37.8155 25.4885C37.8155 25.5735 37.8155 25.6586 37.8155 25.7436C37.8155 25.8001 37.8155 25.8849 37.8155 25.9984C37.7313 29.5381 37.0019 32.9366 35.6272 36.25C34.2808 39.5359 32.2891 42.2262 29.652 44.3494C27.324 46.0778 24.855 47.1812 22.1901 47.6919C19.5533 48.23 16.8321 48.5133 14.0831 48.6263C13.6343 48.6263 13.1572 48.6263 12.6804 48.6263C12.2034 48.6263 11.7266 48.6263 11.2218 48.6263H0V1.6711ZM9.25759 40.1581C9.56621 40.1581 9.90308 40.1581 10.2677 40.1868C10.6323 40.2143 11.0254 40.2143 11.4179 40.2143C11.5584 40.2143 11.6703 40.2143 11.8108 40.2143C11.9227 40.2143 12.0349 40.2143 12.1754 40.2143C12.4557 40.2721 12.7084 40.2996 12.989 40.2996C13.2694 40.2996 13.522 40.2996 13.7462 40.2996C14.195 40.2996 14.6438 40.2721 15.0929 40.2431C15.5417 40.2431 15.9905 40.1866 16.4676 40.1578C17.814 40.045 19.1604 39.7902 20.4791 39.4216C21.7696 39.0253 22.9196 38.431 23.8734 37.6383C25.36 36.364 26.4823 34.6359 27.2398 32.4837C27.9972 30.3315 28.3898 28.0938 28.418 25.7716C28.418 25.7148 28.418 25.6586 28.418 25.6018C28.418 25.5168 28.418 25.4318 28.418 25.3185C28.418 25.2335 28.418 25.1485 28.418 25.0637C28.418 25.0069 28.418 24.9219 28.418 24.8086C28.3898 22.5147 27.9972 20.2772 27.2677 18.1533C26.5386 16.0008 25.4443 14.2449 24.0134 12.8857C22.9756 11.8947 21.7693 11.2146 20.3949 10.8465C19.0485 10.4784 17.6456 10.2801 16.1867 10.2234C15.8783 10.1668 15.5414 10.1383 15.2328 10.1383C14.9245 10.1383 14.5876 10.1383 14.279 10.1383H9.25759V40.1581ZM63.8763 47.8611L61.0432 44.4912C59.8367 45.625 58.4343 46.5594 56.8632 47.2668C55.2924 48.0029 53.6653 48.428 52.038 48.5698C51.8696 48.5973 51.7014 48.6263 51.533 48.6263C51.3646 48.6263 51.1964 48.6263 51.0282 48.6263C50.6634 48.6263 50.3267 48.5975 49.9622 48.5698C49.5976 48.541 49.261 48.4845 48.8964 48.4571C48.1946 48.3153 47.4937 48.1172 46.7925 47.8614C46.091 47.6069 45.4458 47.2958 44.8003 46.8995C43.6501 46.1055 42.7527 45.0583 42.0512 43.7841C41.35 42.4811 40.9292 41.1503 40.7888 39.7907C40.7608 39.6202 40.7608 39.4509 40.7608 39.3091C40.7608 39.1674 40.7608 39.0256 40.7608 38.884C40.7608 38.7713 40.7608 38.6583 40.7608 38.5165C40.7888 38.3747 40.7888 38.2329 40.7888 38.0914C40.7888 38.0349 40.817 38.0061 40.817 37.9786C40.8447 37.9208 40.8447 37.8934 40.8447 37.8081C40.8447 37.7516 40.8727 37.6663 40.8727 37.5535C40.901 37.4683 40.901 37.383 40.901 37.3265C41.2656 35.3161 42.107 33.6455 43.4536 32.3134C44.8001 30.9827 46.2872 29.8214 47.886 28.774C46.8762 27.698 46.0625 26.5368 45.3896 25.2902C44.7164 24.0727 44.3795 22.77 44.3795 21.4672C44.3795 21.2124 44.3795 20.9573 44.4355 20.674C44.4635 20.4195 44.4917 20.1359 44.52 19.9096C44.5759 19.7113 44.6039 19.5416 44.6599 19.3713C44.7161 19.1732 44.7721 19.0034 44.8001 18.8331C45.3613 17.049 46.4554 15.7748 48.0545 14.9533C49.6538 14.1322 51.3366 13.7073 53.16 13.7073C55.4323 13.7073 57.5082 14.3302 59.3879 15.5765C61.2674 16.794 62.2215 18.6349 62.2215 21.0136V21.6085C62.081 23.1098 61.5203 24.412 60.5662 25.4885C59.6123 26.5645 58.5745 27.5274 57.4805 28.4054C57.2278 28.5472 56.9754 28.6889 56.7508 28.887C56.5266 29.0568 56.302 29.2268 56.0776 29.3683L61.7722 36.0807C62.081 35.7972 62.3617 35.5139 62.6418 35.2303C62.9227 34.9467 63.1751 34.6647 63.4277 34.3524C64.0165 33.7868 64.5775 33.1911 65.139 32.5965C65.7 31.9731 66.233 31.3787 66.7381 30.7553L70.5252 34.8062C70.1041 35.2591 69.6556 35.7116 69.2345 36.1645C68.8139 36.6186 68.3929 37.0712 67.9723 37.5528C67.4952 38.0056 67.0467 38.4582 66.6256 38.9123C66.205 39.3651 65.784 39.8177 65.3634 40.2718L71.5913 47.8609H63.8763V47.8611ZM47.7178 40.8102C48.0824 41.2918 48.4475 41.6881 48.7842 41.9992C49.1485 42.339 49.5133 42.5661 49.9059 42.7644C50.2708 42.9624 50.6074 43.1319 50.972 43.2172C51.3366 43.3025 51.6732 43.359 52.0378 43.359C52.7955 43.359 53.4964 43.1897 54.1416 42.9062C54.7871 42.5938 55.4041 42.2265 55.9371 41.8302C56.4139 41.4904 56.9749 41.0088 57.5642 40.3854L51.1961 32.711C51.0557 32.795 50.9157 32.9091 50.7473 32.9933C50.6074 33.0786 50.4949 33.1914 50.3827 33.2769C49.7095 33.8713 49.0643 34.5237 48.475 35.2598C47.858 35.996 47.4372 36.7611 47.1846 37.5538C47.1283 37.7518 47.0724 37.9501 47.0441 38.1482C46.9881 38.3462 46.9882 38.5733 46.9882 38.7715C46.9882 39.1391 47.0441 39.4789 47.1843 39.8187C47.3245 40.1586 47.5217 40.4979 47.7178 40.8102ZM52.8234 26.0834C52.8794 26.0549 52.9077 26.0266 52.9359 25.9984C52.9919 25.9699 53.0196 25.9699 53.1038 25.9134C53.1321 25.8849 53.188 25.8566 53.2163 25.8001C53.2443 25.7718 53.2723 25.7718 53.3285 25.7718C54.0297 25.2622 54.6749 24.7241 55.2922 24.186C55.8809 23.6194 56.274 22.8832 56.4701 22.0053V21.3542C56.4701 20.4195 56.1338 19.6548 55.4883 19.0885C54.8713 18.5218 54.1696 18.182 53.4124 18.0687C53.3562 18.0687 53.272 18.0687 53.2163 18.0687C53.1321 18.0687 53.0758 18.0687 52.9919 18.0687C52.9639 18.0687 52.9077 18.0687 52.8517 18.0687C52.8234 18.0687 52.7392 18.0687 52.683 18.0687C52.1222 18.1255 51.5612 18.3806 51.0559 18.8049C50.5512 19.2015 50.2425 19.8246 50.1866 20.6458C50.1866 20.674 50.1586 20.7311 50.1586 20.7876C50.1303 20.8443 50.1303 20.9006 50.1303 20.9856C50.1303 21.0139 50.1023 21.0424 50.1023 21.0986C50.0744 21.1554 50.0744 21.2121 50.0744 21.2972C50.0744 22.0051 50.2705 22.685 50.6631 23.2793C51.0557 23.9024 51.4768 24.4973 51.9256 25.0637C52.1217 25.2335 52.2622 25.4035 52.4026 25.5733C52.5431 25.7436 52.683 25.9134 52.8234 26.0834ZM119 23.053V24.6106C119 28.8585 118.299 32.8235 116.896 36.5333C115.493 40.2431 112.801 43.2457 108.733 45.5394C107.442 46.3886 106.04 47.0117 104.469 47.4933C102.926 47.9462 101.383 48.286 99.8401 48.484C99.2786 48.5128 98.7455 48.5693 98.2413 48.5968C97.7075 48.5968 97.2032 48.6255 96.6984 48.6255C96.3898 48.6255 96.1092 48.6255 95.8011 48.6255C95.4922 48.6255 95.2115 48.5968 94.9027 48.5403C91.1443 48.3145 87.553 47.266 84.0468 45.4249C80.5682 43.6125 77.7344 41.1493 75.6028 38.0616C74.537 36.4198 73.6954 34.6351 73.0499 32.7665C72.4052 30.8966 71.9841 28.9995 71.76 27.0738C71.732 26.7053 71.6755 26.2809 71.6475 25.8843C71.6475 25.4598 71.6195 25.0349 71.6195 24.6101C71.6195 20.1069 72.7698 15.8305 75.098 11.7527C77.4268 7.67432 80.7092 4.58744 84.9446 2.49175C85.8423 2.03815 86.7684 1.67059 87.722 1.38702C88.6756 1.07571 89.6297 0.820653 90.6395 0.565852C91.5931 0.367817 92.5195 0.226033 93.4728 0.141014C94.4261 0.028511 95.3517 0 96.2491 0C96.3336 0 96.4453 0 96.586 0C96.6982 0 96.8101 0 96.9223 0C100.569 0.0850191 104.104 0.962951 107.555 2.57729C110.977 4.21962 113.95 6.48534 116.447 9.37394L109.715 14.33C107.863 12.4891 105.927 11.0733 103.851 10.0536C101.776 9.06237 99.5592 8.55251 97.2309 8.55251C96.4738 8.55251 95.6881 8.60928 94.9022 8.6943C94.0893 8.80731 93.2754 8.94884 92.434 9.14739C88.9832 10.2234 86.4023 12.2348 84.6353 15.1796C82.896 18.1533 82.0264 21.2687 82.0264 24.6103C82.0264 24.8366 82.0264 25.0917 82.0541 25.375C82.0828 25.6295 82.1386 25.8846 82.1665 26.1397C82.1665 26.2814 82.1945 26.4232 82.2225 26.5362C82.2505 26.6493 82.2503 26.791 82.2503 26.9326C82.307 27.0461 82.3347 27.1594 82.3627 27.3012C82.3907 27.4424 82.3907 27.5842 82.3907 27.669C83.0079 31.3225 84.5508 34.2108 87.0752 36.279C89.6004 38.3459 92.3218 39.6202 95.2665 40.0453C95.6596 40.1581 96.1084 40.2146 96.5572 40.2433C97.006 40.2721 97.4268 40.2721 97.8194 40.2721C100.625 40.2721 103.093 39.5069 105.31 38.0059C107.498 36.4771 108.591 34.3249 108.591 31.493L108.732 31.1807H97.2864V23.053H119ZM32.3731 52.8467H33.0743H33.1305H34.1401C35.3748 52.8467 36.4126 53.9504 36.4126 55.3387C36.4126 56.6983 35.3746 57.802 34.1401 57.8307H33.1305H33.0463H32.3731V52.8467ZM33.1305 53.4411V57.2361H33.9439C35.0662 57.2073 35.627 56.3017 35.627 55.3662C35.627 54.403 35.0659 53.6103 34.1401 53.4686L33.1305 53.4411ZM39.3864 52.7324C40.9015 52.7324 42.1072 53.8937 42.1072 55.3385C42.1072 56.782 40.9012 57.9435 39.3864 57.9435C37.8995 57.9435 36.6655 56.7822 36.6655 55.3385C36.6653 53.8939 37.8995 52.7324 39.3864 52.7324ZM39.3864 53.3558C40.4807 53.3558 41.378 54.2337 41.378 55.3387C41.378 56.4147 40.4807 57.2926 39.3864 57.2926C38.3206 57.2926 37.4224 56.4147 37.4224 55.3387C37.4224 54.2337 38.3203 53.3558 39.3864 53.3558ZM42.3319 52.8467H43.0611V57.2364H44.4637V57.8307H43.0611H42.7247H42.3319V52.8467ZM46.8202 52.7049C47.3812 52.7049 47.9145 52.8742 48.3631 53.1578V54.0645C47.998 53.6103 47.4372 53.327 46.8202 53.327C45.7259 53.327 44.8563 54.2337 44.8563 55.3387C44.8563 56.4147 45.7259 57.3204 46.8202 57.3204C47.4375 57.3204 47.9982 57.0381 48.3631 56.5842V57.5187C47.9143 57.8022 47.381 57.9728 46.8202 57.9728C45.3334 57.9728 44.0994 56.7825 44.0994 55.339C44.0994 53.8939 45.3336 52.7049 46.8202 52.7049ZM49.3449 57.2361H51.1124V57.8305H49.3449H48.5875V57.2361V55.4802V54.8846V53.4123V52.8467H49.3449H51.1124V53.4123H49.3449V54.8846H51.1124V55.4802H49.3449V57.2361ZM53.8897 57.4909C53.8055 57.5762 53.7211 57.6327 53.6089 57.6889C53.5246 57.7455 53.4127 57.7742 53.3002 57.8017C53.2723 57.8017 53.2443 57.8017 53.2163 57.8305C53.188 57.8305 53.16 57.8305 53.1321 57.8305C53.0478 57.8305 52.9916 57.8017 52.9074 57.8017C52.8232 57.7742 52.767 57.7452 52.6827 57.6889C52.6268 57.6324 52.5708 57.5472 52.5148 57.4619C52.4866 57.3779 52.4586 57.2926 52.4306 57.2073V57.1786C52.4306 57.1511 52.4306 57.1511 52.4306 57.1511C52.4306 57.1223 52.4306 57.1223 52.4306 57.1223C52.4306 57.0948 52.4306 57.0948 52.4306 57.0658H52.4586C52.4586 57.0383 52.4586 57.0383 52.4586 57.0383C52.4586 57.0383 52.4586 57.0383 52.4586 57.0096C52.4863 56.8678 52.5428 56.755 52.6548 56.6407C52.7667 56.5567 52.8789 56.4715 52.9914 56.3862C52.9354 56.3022 52.8789 56.2169 52.8229 56.1316C52.7667 56.0751 52.7387 55.9624 52.7387 55.8771V55.8483C52.7387 55.8208 52.7387 55.8208 52.7387 55.7918C52.7387 55.763 52.7387 55.763 52.7387 55.763C52.7667 55.763 52.7667 55.7356 52.7667 55.7356C52.7949 55.6228 52.8512 55.5375 52.9354 55.452C53.0473 55.3955 53.1316 55.3667 53.2438 55.3667C53.2438 55.3667 53.2438 55.3667 53.2717 55.3667H53.2997C53.2997 55.3667 53.2997 55.3667 53.328 55.3667C53.4399 55.3667 53.5804 55.4245 53.6928 55.5085C53.7768 55.5938 53.8328 55.7065 53.8328 55.8773C53.8328 56.0191 53.805 56.1319 53.7206 56.2172C53.6084 56.3299 53.5244 56.4152 53.4122 56.4717L53.9452 57.1226C53.9732 57.0661 54.0294 57.0098 54.0857 56.9245C54.1416 56.868 54.1696 56.8118 54.2261 56.7553L54.3943 56.9245C54.3663 56.9811 54.3101 57.0386 54.2821 57.0951C54.2541 57.1516 54.1979 57.2079 54.1416 57.2644C54.1416 57.2644 54.1416 57.2644 54.1136 57.2931C54.1136 57.2931 54.1136 57.3206 54.0857 57.3206L54.4782 57.7747H54.1416L53.8897 57.4909ZM53.2443 57.5762C53.3285 57.5762 53.4127 57.5474 53.4967 57.4909C53.5529 57.4344 53.6368 57.3782 53.6933 57.3204C53.7211 57.3204 53.7211 57.3204 53.7211 57.3204C53.7211 57.3204 53.7211 57.3204 53.7493 57.2929L53.1323 56.5842C53.1323 56.613 53.1323 56.613 53.1041 56.613C53.0761 56.6405 53.0761 56.6405 53.0761 56.6405C53.0199 56.6692 52.9919 56.6983 52.9362 56.7257C52.8794 56.7822 52.8519 56.811 52.8237 56.8675C52.796 56.8675 52.796 56.8963 52.796 56.924C52.7677 56.9528 52.7677 56.9805 52.7677 57.0093C52.7397 57.0381 52.7397 57.0658 52.7397 57.0658C52.7397 57.0946 52.7397 57.1223 52.7397 57.1511C52.7397 57.2639 52.7677 57.3491 52.8522 57.4621C52.9641 57.5474 53.0484 57.5762 53.1885 57.5762H53.2168C53.2165 57.5762 53.2165 57.5762 53.2443 57.5762ZM53.0199 55.8203C53.0199 55.8478 53.0199 55.8478 53.0199 55.8478V55.8766C53.0199 55.9331 53.0199 55.9893 53.0481 56.0458C53.0761 56.1023 53.1323 56.1599 53.16 56.1876C53.188 56.2164 53.188 56.2164 53.2163 56.2441L53.2443 56.2729H53.2723C53.2723 56.2729 53.3002 56.2729 53.3002 56.2441C53.3565 56.2167 53.4127 56.1876 53.4689 56.1314C53.5249 56.0749 53.5531 56.0186 53.5809 55.9333C53.5809 55.9046 53.5809 55.9046 53.5809 55.9046C53.5809 55.8771 53.5809 55.8771 53.5809 55.8771C53.5809 55.7918 53.5529 55.7353 53.4967 55.6791C53.4404 55.6503 53.3847 55.6225 53.3285 55.6225C53.3002 55.6225 53.3002 55.6225 53.3002 55.6225C53.3002 55.6225 53.3002 55.6225 53.2723 55.6225C53.2163 55.6225 53.16 55.6225 53.1038 55.6791C53.0481 55.706 53.0199 55.7625 53.0199 55.8203ZM58.4341 52.6762C59.4159 52.6762 60.2855 53.1865 60.7906 53.9229L60.1454 54.2627C59.7808 53.6959 59.1633 53.327 58.4621 53.327C57.34 53.327 56.4704 54.2337 56.4704 55.3387C56.4704 56.4424 57.34 57.3204 58.4621 57.3204C59.3879 57.3204 60.1171 56.8675 60.1736 55.9043H58.5745V55.31H60.1171C60.1171 55.31 60.9025 55.31 60.9593 55.31C60.9593 55.31 60.9593 53.7812 60.9593 55.3387C60.9593 56.8963 60.1171 58 58.4343 58C56.751 58 55.685 56.811 55.685 55.3387C55.685 53.8649 56.9192 52.6762 58.4341 52.6762ZM60.5379 57.8307L62.5861 52.8467H63.0631L65.1105 57.8307H64.3253L63.7643 56.4147H61.8846L61.3239 57.8307H60.5379ZM62.1655 55.7913L62.8382 54.0067L63.4837 55.7913H62.1655ZM72.2922 57.8307L74.3121 52.8467H74.7887L76.8365 57.8307H76.0514L75.4906 56.4147H73.6104L73.0494 57.8307H72.2922ZM73.8913 55.7913L74.5645 54.0067L75.2377 55.7913H73.8913ZM82.0543 57.8307L84.1025 52.8467H84.5795L86.6277 57.8307H85.8418L85.253 56.4147H83.4013L82.8405 57.8307H82.0543ZM83.6817 55.7913L84.3271 54.0067L85.0001 55.7913H83.6817ZM66.878 53.4123C67.383 53.4688 67.551 53.6668 67.551 54.1775C67.551 54.6591 67.2144 54.9136 66.7935 54.9136H66.1483V53.4123H66.878ZM66.9342 55.508H66.962C67.3268 55.508 67.972 55.5933 67.972 56.4147C67.972 57.0656 67.4113 57.2361 66.878 57.2361H66.9897H66.1481V55.5077H66.7933H66.9342V55.508ZM65.9806 57.8307H66.1483H67.2429C68.1125 57.8307 68.758 57.2364 68.758 56.4147C68.758 55.7625 68.3646 55.2822 67.8039 55.0839C68.1125 54.8846 68.2809 54.517 68.2809 54.0642C68.2809 53.3268 67.8039 52.8465 67.0464 52.8465C66.6534 52.8177 66.2328 52.8465 65.8402 52.8465H65.8117C65.8117 52.8465 65.8117 52.8465 65.784 52.8465H65.3914V57.8305H65.9806V57.8307ZM70.6369 53.4123C71.114 53.4688 71.2824 53.6668 71.3101 54.1775C71.3101 54.6591 70.9735 54.9136 70.5527 54.9136H69.9075V53.4123H70.6369ZM70.6654 55.508C70.6934 55.508 70.6934 55.508 70.6934 55.508C71.058 55.508 71.7027 55.5933 71.7027 56.4147C71.7027 57.0656 71.1417 57.2361 70.6089 57.2361H70.7491H69.9075V55.5077H70.5527H70.6654V55.508ZM69.7113 57.8307H69.9075H71.002C71.8717 57.8307 72.4884 57.2364 72.4884 56.4147C72.4884 55.7625 72.0958 55.2822 71.535 55.0839C71.8717 54.8846 72.0393 54.517 72.0393 54.0642C72.0393 53.3268 71.535 52.8465 70.8051 52.8465C70.3845 52.8177 69.9919 52.8465 69.5706 52.8465C69.5429 52.8465 69.5429 52.8465 69.5429 52.8465H69.5149H69.1223V57.8305H69.7113V57.8307ZM77.1734 52.8467H77.6505L81.101 56.5277V52.8467H81.7742V57.8307H81.2692L77.8746 54.1772V57.8307H77.1734V52.8467Z" fill="white"/>
</g>
<defs>
<clipPath id="clip0_2003_33">
<rect width="119" height="58" fill="white"/>
</clipPath>
</defs>
</svg>
