<svg width="136" height="53" viewBox="0 0 136 53" fill="none" xmlns="http://www.w3.org/2000/svg">
<mask id="mask0_2003_21" style="mask-type:luminance" maskUnits="userSpaceOnUse" x="0" y="0" width="136" height="53">
<path d="M0.375 52.5213H135.716V0.229736H0.375V52.5213Z" fill="white"/>
</mask>
<g mask="url(#mask0_2003_21)">
<path d="M114.204 31.7603C114.162 31.5158 114.162 31.3029 115.429 30.9225C116.691 30.5466 119.762 29.5457 121.628 28.5538C123.493 27.5529 123.804 27.4125 124.242 27.6933C124.68 27.9696 124.553 28.6489 124.553 29.129V33.9931C125.236 32.9152 127.478 29.3283 129.258 28.273C130.657 27.4397 131.152 27.3718 132.018 27.3537C133.059 27.3355 135.518 27.9515 135.626 30.4469C135.711 32.3989 134.213 33.1824 133.262 33.0602C132.499 32.956 131.952 32.2812 131.5 31.6018C131.043 30.9134 130.318 30.5058 129.593 30.7413C128.867 30.9814 124.802 33.5176 124.572 37.1227C124.407 39.7766 124.572 48.0511 124.572 48.0511C124.572 49.3056 125.071 49.7902 125.655 50.1253C126.234 50.465 128.368 50.4831 128.966 50.5647C129.574 50.6462 129.55 50.782 129.55 50.9632C129.55 51.1398 129.55 51.2259 129.013 51.2259H114.723C114.266 51.2259 114.082 51.1398 114.082 50.8817C114.082 50.5239 114.68 50.5873 115.137 50.5239C115.594 50.465 118.01 50.6552 118.703 49.4868C119.211 48.7214 119.15 47.4895 119.15 47.4895L119.079 32.956C119.079 31.783 118.717 31.6109 118.382 31.4252C118.043 31.2395 117.483 31.1399 116.3 31.5248C115.184 31.8781 114.416 32.2087 114.204 31.7603Z" fill="white"/>
<path d="M64.2253 31.765C64.0321 31.4072 64.3901 31.1762 65.4499 30.909C66.6321 30.6055 69.2227 29.8492 71.2763 28.7306C73.33 27.6164 73.6832 27.4987 74.1165 27.6345C74.5546 27.7749 74.5122 28.5132 74.5122 29.111V47.9153C74.5122 48.9705 74.6582 49.4099 75.1528 49.8492C75.6521 50.2885 76.8955 50.5466 78.5111 50.5466C79.2412 50.5466 79.4673 50.6282 79.4673 50.9271C79.4673 51.226 79.2412 51.226 78.9491 51.226H64.7669C64.3289 51.226 64.2253 51.0448 64.2253 50.8682C64.2253 50.6463 64.4184 50.5059 65.0778 50.5059C65.6336 50.5059 68.2006 50.6916 68.7847 49.4099C69.0108 48.9207 69.1191 48.2369 69.1191 47.5983V32.6798C69.1191 31.5476 68.2053 31.0449 67.1503 31.2894C65.9162 31.5612 64.4796 32.2315 64.2253 31.765Z" fill="white"/>
<path d="M71.4554 18.7578C73.3818 18.7578 74.9456 17.2542 74.9456 15.4064C74.9456 13.554 73.3818 12.0549 71.4554 12.0549C69.5337 12.0549 67.9746 13.554 67.9746 15.4064C67.9746 17.2542 69.5337 18.7578 71.4554 18.7578Z" fill="white"/>
<path d="M88.5016 40.0848C89.2034 46.1854 92.9809 50.9317 97.6628 50.1346C102.354 49.3375 104.704 45.0305 104.139 38.1328C103.56 31.1175 99.9519 27.6166 95.0958 28.0378C90.0748 28.4771 87.7951 33.9798 88.5016 40.0848ZM93.1458 26.9644C99.1889 25.8774 107.785 27.1591 109.74 36.2533C111.69 45.3475 105.18 50.189 99.5327 51.371C94.0124 52.5214 84.6393 51.7017 82.9436 41.9191C81.4175 33.1374 88.0447 27.8792 93.1458 26.9644Z" fill="white"/>
<path d="M21.5987 49.7541H25.103C38.1407 49.7541 41.6403 48.5901 46.228 42.7296C50.8157 36.8691 51.362 28.4543 51.362 25.6101C51.362 22.7659 50.5755 15.6283 45.9878 9.59113C41.3954 3.554 33.732 1.98698 27.0295 1.98698H21.5704C20.2752 1.98698 20.2092 2.53951 20.2092 3.40908V48.649C20.2092 49.6363 20.5719 49.7541 21.5987 49.7541ZM0.370117 50.8139C0.370117 50.3564 0.987144 50.2794 1.56178 50.2613C8.19836 50.0802 9.43713 49.8582 10.1955 49.1019C10.61 48.6852 11.2176 48.3456 11.2176 45.3882V4.69983C11.2176 1.04495 6.60163 1.62466 3.34221 1.3031C2.19765 1.19441 2.10345 1.04495 2.10345 0.723395C2.10345 0.406366 2.32011 0.252381 2.9183 0.229736H29.6577C59.0584 0.229736 60.5609 20.8955 60.5609 26.4072C60.5609 38.2505 52.4171 51.2758 35.3947 51.2758H1.22736C0.808159 51.2758 0.370117 51.2215 0.370117 50.8139Z" fill="white"/>
</g>
</svg>
