<svg width="136" height="18" viewBox="0 0 136 18" fill="none" xmlns="http://www.w3.org/2000/svg">
<g clip-path="url(#clip0_2003_52)">
<path d="M0.69248 2.8613V0.241455H8.80893V3.10407L3.16714 15.1374H8.80893V17.7573H0V14.8947L5.71594 2.8613H0.69248Z" fill="white"/>
<path d="M13.4853 11.2557H15.9586L14.7471 3.73501H14.6968L13.4853 11.2557ZM12.4949 17.7573H9.52637L12.8166 0.241455H16.6273L19.9175 17.7573H16.949L16.4048 13.8755H13.0391L12.4949 17.7573Z" fill="white"/>
<path d="M24.2724 15.2828H25.337C26.9695 15.2828 27.5389 14.6765 27.5389 12.8331V5.16567C27.5389 3.32217 26.9695 2.71589 25.337 2.71589H24.2724V15.2828ZM21.2046 0.241455H25.7567C28.9251 0.241455 30.6067 1.93955 30.6067 5.53047V12.4682C30.6067 16.0592 28.9251 17.7573 25.7567 17.7573H21.2046V0.241455Z" fill="white"/>
<path d="M32.2656 17.7573V0.241455H35.3335V17.7573H32.2656Z" fill="white"/>
<mask id="mask0_2003_52" style="mask-type:luminance" maskUnits="userSpaceOnUse" x="36" y="0" width="11" height="18">
<path d="M36.9463 0H46.4371V18.0001H36.9463V0Z" fill="white"/>
</mask>
<g mask="url(#mask0_2003_52)">
<path d="M41.2216 8.87872H46.245V17.7574H44.7608L44.1914 16.4474C43.2765 17.5146 42.5337 18.0001 41.0984 18.0001C38.6741 18.0001 36.9912 16.302 36.9912 13.5121V4.48678C36.9912 2.01234 38.4755 -0.0012207 41.4943 -0.0012207C44.5621 -0.0012207 46.0967 2.18241 46.0967 4.80225V5.91874H43.1772C43.1772 3.2976 42.633 2.61862 41.4202 2.61862C40.6787 2.61862 40.059 3.05613 40.059 4.53482V13.5355C40.059 14.652 40.4298 15.3803 41.4943 15.3803C42.731 15.3803 43.1772 14.7 43.1772 12.9539V11.2558H41.2216V8.87872Z" fill="white"/>
</g>
<mask id="mask1_2003_52" style="mask-type:luminance" maskUnits="userSpaceOnUse" x="49" y="2" width="15" height="16">
<path d="M49.4878 2.65869H63.0461V18H49.4878V2.65869Z" fill="white"/>
</mask>
<g mask="url(#mask1_2003_52)">
<path d="M54.7032 8.20603C55.5585 7.49329 56.4059 6.57025 56.2775 5.68745C56.1689 4.93577 55.6075 4.36195 54.6899 4.48917C54.0636 4.57616 53.4016 5.2058 53.534 6.12625C53.6492 6.91558 54.0928 7.61922 54.7032 8.20603ZM54.7177 15.445C55.8418 15.445 56.6018 14.5882 57.0428 13.9494C56.0484 12.9848 55.111 12.0968 54.1338 11.1387C53.2838 11.5827 52.3675 12.5447 52.3675 13.5132C52.3675 14.605 53.5406 15.445 54.7177 15.445ZM62.7203 8.85904C62.1033 10.2469 61.0613 12.3591 60.2417 13.4924C60.8931 14.0689 62.1986 15.4086 62.9547 16.1512L61.2797 17.7714C60.5091 17.1223 59.5955 16.2032 58.9494 15.5696C57.9193 17.3145 56.104 17.9636 54.6118 17.9636C51.7757 17.9636 49.7578 16.603 49.7578 13.6365C49.7578 11.8021 51.013 10.4896 52.484 9.52114C51.6433 8.32676 50.9985 7.59975 50.9985 6.13664C50.9985 4.03479 52.6164 2.67554 54.8435 2.67554C56.8402 2.67554 58.4582 4.11788 58.4582 5.99253C58.4582 7.4907 57.53 8.63444 56.3622 9.52374C56.6283 9.78338 57.6915 10.9154 58.6369 11.7398C59.2473 10.8739 59.7359 9.84959 60.0934 8.86034L62.7203 8.85904Z" fill="white"/>
</g>
<path d="M71.2236 0.241455H74.2425L70.506 17.7573H67.4381L63.7017 0.241455H66.7205L68.9476 12.3955H68.9966L71.2236 0.241455Z" fill="white"/>
<mask id="mask2_2003_52" style="mask-type:luminance" maskUnits="userSpaceOnUse" x="74" y="0" width="11" height="18">
<path d="M74.5708 0H84.4006V18.0001H74.5708V0Z" fill="white"/>
</mask>
<g mask="url(#mask2_2003_52)">
<path d="M77.8056 13.4394C77.8056 14.7493 78.2015 15.3803 79.4382 15.3803C80.6762 15.3803 81.0721 14.7493 81.0721 13.4394V4.55948C81.0721 3.24956 80.6762 2.61862 79.4382 2.61862C78.2015 2.61862 77.8056 3.24956 77.8056 4.55948V13.4394ZM74.7378 4.48678C74.7378 2.01234 76.2221 -0.0012207 79.4382 -0.0012207C82.6556 -0.0012207 84.1399 2.01234 84.1399 4.48678V13.5121C84.1399 15.9866 82.6556 18.0001 79.4382 18.0001C76.2221 18.0001 74.7378 15.9866 74.7378 13.5121V4.48678Z" fill="white"/>
</g>
<path d="M85.5498 17.7573V0.241455H88.619V15.1374H93.4438V17.7573H85.5498Z" fill="white"/>
<path d="M94.6803 2.8613H91.7104V0.241455H100.718V2.8613H97.7481V17.7573H94.6803V2.8613Z" fill="white"/>
<path d="M103.539 11.2557H106.013L104.8 3.73501H104.751L103.539 11.2557ZM102.549 17.7573H99.5796L102.871 0.241455H106.68L109.972 17.7573H107.002L106.458 13.8755H103.094L102.549 17.7573Z" fill="white"/>
<path d="M111.06 17.7573V0.241455H114.128V17.7573H111.06Z" fill="white"/>
<path d="M119.374 8.10228H120.462C122.12 8.10228 122.74 7.4947 122.74 5.40844C122.74 3.32217 122.12 2.71589 120.462 2.71589H119.374V8.10228ZM119.374 17.7573H116.306V0.241455H120.612C124.051 0.241455 125.808 1.67211 125.808 5.40844C125.808 8.22301 124.694 9.36287 123.655 9.82374L126.252 17.7573H123.136L120.958 10.504C120.562 10.5521 119.918 10.5767 119.374 10.5767V17.7573Z" fill="white"/>
<mask id="mask3_2003_52" style="mask-type:luminance" maskUnits="userSpaceOnUse" x="127" y="0" width="9" height="18">
<path d="M127.109 0H136V17.9468H127.109V0Z" fill="white"/>
</mask>
<g mask="url(#mask3_2003_52)">
<path d="M127.44 17.7573V0.241455H135.656V2.8613H130.509V7.37397H134.468V9.99381H130.509V15.1374H136.001V17.7573H127.44Z" fill="white"/>
</g>
</g>
<defs>
<clipPath id="clip0_2003_52">
<rect width="136" height="18" fill="white"/>
</clipPath>
</defs>
</svg>
