<svg width="135" height="28" viewBox="0 0 135 28" fill="none" xmlns="http://www.w3.org/2000/svg">
<g clip-path="url(#clip0_2003_48)">
<path d="M84.7143 4.84068H85.2857L84.8095 0.0474576L84.7619 0H84.619V0.0474576L84.0952 4.84068H84.1429H84.7143ZM87.4286 5.17288V5.12542L88.2381 0.854237V0.80678L88.0952 0.759322L88.0476 0.80678L86.2857 4.88814L87.4286 5.17288ZM86.5714 7.02373C86.9048 7.02373 87.2381 6.73898 87.2381 6.35932C87.2381 5.97966 86.9524 5.69492 86.5714 5.69492C86.1905 5.69492 85.9048 5.97966 85.9048 6.35932C85.9048 6.73898 86.1905 7.02373 86.5714 7.02373ZM84.7143 6.78644C85.0476 6.78644 85.381 6.50169 85.381 6.12203C85.381 5.74237 85.0952 5.45763 84.7143 5.45763C84.3333 5.45763 84.0476 5.74237 84.0476 6.12203C84 6.54915 84.3333 6.78644 84.7143 6.78644ZM82 5.17288L83.0952 4.88814H83.1429L81.3333 0.80678L81.2857 0.759322L81.1905 0.80678L81.1429 0.854237L81.9524 5.12542L82 5.17288ZM82.1429 6.31186C82.1429 6.69152 82.4286 6.97627 82.8095 6.97627C83.1429 6.97627 83.4762 6.69152 83.4762 6.31186C83.4762 5.9322 83.1905 5.64746 82.8095 5.64746C82.4762 5.69492 82.1429 5.97966 82.1429 6.31186ZM5.7619 8.21017H0C0 8.21017 0.142857 9.58644 0.142857 11.9593V23.9661C0.142857 26.339 0 27.7153 0 27.7153L0.047619 27.7627H3.80952V27.7153C3.80952 27.7153 3.66667 26.339 3.66667 23.9661V20.4542L3.71429 20.4068C4.2381 20.4542 5.38095 20.5017 5.7619 20.5017C9.61905 20.5017 12.9524 18.1763 12.9524 14.1898C12.9048 10.3932 9.57143 8.21017 5.7619 8.21017ZM5.57143 17.322C5.14286 17.322 4.09524 17.2746 3.66667 17.1797V11.3898H5.85714C7.80952 11.3898 9.33333 12.1492 9.33333 14.1898C9.33333 16.2305 8 17.322 5.57143 17.322ZM23.619 9.77627C23.1905 8.77966 23.0476 8.21017 23.0476 8.21017L23 8.16271H20L19.9524 8.21017C19.9524 8.21017 19.8571 8.77966 19.4286 9.77627L12.8095 25.6271C12.2381 26.9559 11.6667 27.7153 11.6667 27.7153V27.7627H15.5238L15.5714 27.7153C15.5714 27.6203 15.6667 27.1458 16.1429 25.9593L17.3333 22.9695H25.8571L27.1429 25.9593C27.5714 27.0983 27.8095 27.7153 27.8095 27.7153L27.8571 27.7627H31.7143V27.7153C31.7143 27.7153 31.1905 27.0034 30.5714 25.6271L23.619 9.77627ZM18.6667 19.7424L21.4286 12.861H21.4762L24.4762 19.7424H18.6667ZM51.0476 8.21017L47.619 8.16271L47.5714 8.21017C47.5714 8.21017 47.7143 9.58644 47.7143 11.9593V21.7831H47.6667L37.0952 8.21017H33.3333C33.7619 9.11186 34 9.72881 34 10.1559V23.9661C34 26.339 33.8571 27.7153 33.8571 27.7153L33.9048 27.7627H37.3333L37.381 27.7153C37.381 27.7153 37.2381 26.339 37.2381 23.9661V13.9525H37.2857L47.9048 27.7153H51.0952L51.1429 27.6678C51.1429 27.6678 51 26.2915 51 23.9186V11.9593C50.9048 9.58644 51.0476 8.21017 51.0476 8.21017ZM61.7143 8.21017H55.1429L55.0952 8.25763C55.0952 8.25763 55.2381 9.6339 55.2381 12.0068V24.0136C55.2381 26.3864 55.0952 27.7627 55.0952 27.7627L55.1429 27.8102H57.1429C58.4762 27.8102 59.9524 28 61.619 28C67.619 28 71.9048 23.7763 71.9048 18.0814C71.9048 12.2915 67.7619 8.21017 61.7143 8.21017ZM61.4762 24.678C60.5238 24.678 59.6667 24.6305 59.1429 24.4881C58.8571 24.3932 58.7619 24.2983 58.7619 23.7763V11.3898H61.381C65.619 11.3898 68.3333 14.2373 68.3333 18.0339C68.3333 21.7831 65.619 24.678 61.4762 24.678ZM84.7143 7.92542C79.0476 7.92542 74.6667 12.2915 74.6667 17.939C74.6667 23.6339 79.0476 27.9525 84.7143 27.9525C90.4286 27.9525 94.7619 23.6339 94.7619 17.939C94.7619 12.2915 90.4286 7.92542 84.7143 7.92542ZM84.7143 24.7729C81.0952 24.7729 78.2381 21.8305 78.2381 17.9864C78.2381 14.1424 81.0476 11.2 84.7143 11.2C88.381 11.2 91.1905 14.1424 91.1905 17.9864C91.1905 21.7831 88.381 24.7729 84.7143 24.7729ZM108.714 21.1186C108.238 20.3593 107.524 19.7424 106.762 19.5051V19.4576C108.81 19.0305 110.714 16.6576 110.714 14.2847C110.714 11.0576 108.238 8.21017 104.381 8.21017H98.0952L98.0476 8.25763C98.0476 8.25763 98.1905 9.6339 98.1905 12.0068V24.0136C98.1905 26.3864 98.0476 27.7627 98.0476 27.7627L98.0952 27.8102H101.857L101.905 27.7627C101.905 27.7627 101.762 26.3864 101.762 24.0136V20.2644C103.619 20.2644 104.381 20.6441 105.048 21.6881L106.667 24.2034C108 26.339 108.524 27.6678 108.524 27.6678L108.571 27.7153H113.048V27.6678C113.048 27.6678 111.905 26.2915 110.619 24.2034L108.714 21.1186ZM103.524 17.1322C103.095 17.1322 102.286 17.1322 101.762 17.0373V11.3898H103.905C106 11.3898 107.143 12.7661 107.143 14.3322C107.143 15.8034 106 17.1322 103.524 17.1322ZM133.857 25.6271L126.905 9.77627C126.476 8.77966 126.333 8.21017 126.333 8.21017L126.286 8.16271H123.238L123.19 8.21017C123.19 8.21017 123.095 8.77966 122.667 9.77627L116.095 25.6271C115.524 26.9559 114.952 27.7153 114.952 27.7153V27.7627H118.81L118.857 27.7153C118.857 27.6203 118.952 27.1458 119.429 25.9593L120.619 22.9695H129.143L130.429 25.9593C130.857 27.0983 131.095 27.7153 131.095 27.7153L131.143 27.7627H135V27.7153C135 27.7153 134.476 27.0034 133.857 25.6271ZM121.952 19.7424L124.714 12.861H124.762L127.762 19.7424H121.952Z" fill="white"/>
</g>
<defs>
<clipPath id="clip0_2003_48">
<rect width="135" height="28" fill="white"/>
</clipPath>
</defs>
</svg>
