<svg width="62" height="62" viewBox="0 0 62 62" fill="none" xmlns="http://www.w3.org/2000/svg">
<path d="M43.2062 16.275C41.6562 16.275 40.4937 17.4375 40.4937 18.9875C40.4937 20.5375 41.6562 21.7 43.2062 21.7C44.7562 21.7 45.9187 20.5375 45.9187 18.9875C45.9187 17.4375 44.7562 16.275 43.2062 16.275Z" fill="white"/>
<path d="M31.0001 19.7625C24.6063 19.7625 19.5688 24.9937 19.5688 31.1937C19.5688 37.3937 24.8001 42.625 31.0001 42.625C37.2001 42.625 42.4313 37.3937 42.4313 31.1937C42.4313 24.9937 37.3938 19.7625 31.0001 19.7625ZM31.0001 38.5562C26.9313 38.5562 23.6376 35.2625 23.6376 31.1937C23.6376 27.125 26.9313 23.8312 31.0001 23.8312C35.0688 23.8312 38.3626 27.125 38.3626 31.1937C38.3626 35.2625 35.0688 38.5562 31.0001 38.5562Z" fill="white"/>
<path d="M40.3 7.75H21.8938C13.95 7.75 7.75 13.95 7.75 21.7V40.1063C7.75 47.8563 13.95 54.0563 21.7 54.0563H40.1063C47.8563 54.0563 54.0562 47.8563 54.0562 40.1063V21.7C54.25 13.95 48.05 7.75 40.3 7.75ZM49.7938 40.3C49.7938 45.5312 45.5312 49.9875 40.1063 49.9875H21.7C16.4688 49.9875 12.0125 45.725 12.0125 40.3V21.8938C12.0125 16.6625 16.275 12.2063 21.7 12.2063H40.1063C45.3375 12.2063 49.7938 16.4688 49.7938 21.8938V40.3Z" fill="white"/>
</svg>
