<svg width="482" height="152" viewBox="0 0 482 152" fill="none" xmlns="http://www.w3.org/2000/svg">
<path d="M108.814 71.2206C104.842 69.817 35.8154 35.7159 1.79855 18.8409C1.1325 18.6493 0.0184447 18.1329 0.890557 17.5995C1.9807 16.9327 12.367 11.6278 19.7251 8.47468C27.0832 5.32153 37.2874 1.92481 47.5516 0.587603C57.8159 -0.749604 77.6464 2.54289 86.9713 4.32569C96.2961 6.10849 103.351 6.13564 107.075 6.1037C110.799 6.07176 117.49 7.21969 131.022 11.9687C144.555 16.7178 188.662 42.5938 193.657 45.378C198.652 48.1622 218.965 57.1485 224.143 55.329C229.321 53.5095 232.894 53.7199 234.256 54.2342C235.618 54.7484 235.225 54.8395 246.912 53.3805C256.262 52.2133 271.984 41.638 278.677 36.4963C284.35 32.6271 295.913 24.7554 296.785 24.2219C297.876 23.5551 300.54 22.5242 308.382 22.3692C316.224 22.2143 320.249 27.0888 321.853 30.4499C323.457 33.8111 321.85 43.9278 321.394 50.046C320.938 56.1643 325.722 57.1313 328.749 57.6752C331.777 58.219 343.071 54.1555 346.523 52.9424C349.975 51.7294 369.688 42.8162 372.746 41.6942C375.804 40.5722 383.707 37.0856 386.13 35.9033C388.552 34.7211 396.274 30.4471 399.665 29.8702C403.056 29.2932 404.691 30.9886 406.506 36.1669C408.321 41.3452 407.501 51.2798 407.288 54.8538C407.076 58.4278 410.1 72.4495 411.309 78.5972C412.519 84.745 416.576 85.2581 420.693 85.1351C424.811 85.0121 435.077 75.5882 439.438 72.921C443.798 70.2538 444.706 71.4952 445.221 72.8276C445.735 74.16 444.885 83.0648 444.52 89.5768C444.155 96.0887 450.301 97.57 452.874 98.8409C455.447 100.112 459.747 100.776 464.287 104.288C468.828 107.799 471.067 113.916 472.186 116.974C473.306 120.033 476.966 131.419 477.571 133.145C478.176 134.872 479.84 142.988 480.596 144.472C481.201 145.659 481.776 149.59 481.987 151.407C481.281 150.741 479.844 149.124 479.747 147.985C479.627 146.562 478.447 141.444 477.48 135.447C476.513 129.451 473.607 127.635 472.85 126.151C472.093 124.667 465.615 119.946 458.834 118.404C452.052 116.862 442.395 111.839 440.791 111.173C439.186 110.508 436.462 106.784 438.189 103.481C439.915 100.179 440.219 96.9991 437.676 96.7579C435.133 96.5167 422.172 105.942 412.693 112.488C403.215 119.034 403.155 116.975 401.187 114.734C399.22 112.494 396.71 102.5 395.712 98.1698C394.713 93.8391 391.357 76.5769 390.964 73.9723C390.571 71.3678 389.209 70.8535 385.486 68.1899C381.762 65.5264 380.733 65.557 373.739 64.8938C366.745 64.2306 338.737 71.3303 332.136 73.2716C325.535 75.2129 309.276 77.522 306.582 77.5232C303.887 77.5244 303.1 75.0109 303.706 74.0414C304.312 73.072 308.733 69.7687 309.793 68.0721C310.853 66.3756 311.58 66.8296 309.31 65.0739C307.039 63.3182 300.196 65.1082 293.959 65.9288C287.722 66.7494 234.491 81.3412 221.199 84.8301C207.906 88.3191 184.925 91.146 170.756 91.7278C156.586 92.3095 143.145 85.2586 135.728 80.9611C128.311 76.6636 113.779 72.975 108.814 71.2206Z" fill="#252525"/>
</svg>
