<svg width="62" height="62" viewBox="0 0 62 62" fill="none" xmlns="http://www.w3.org/2000/svg">
<path d="M46.8722 17.2915C46.543 17.1244 46.2226 16.9412 45.912 16.7426C45.009 16.1562 44.1811 15.4652 43.446 14.6846C41.607 12.6176 40.9201 10.5207 40.6671 9.05255H40.6772C40.4659 7.83392 40.5533 7.04546 40.5665 7.04546H32.19V38.8615C32.19 39.2887 32.19 39.7108 32.1717 40.128C32.1717 40.1799 32.1666 40.2278 32.1636 40.2837C32.1636 40.3067 32.1636 40.3306 32.1585 40.3546C32.1585 40.3606 32.1585 40.3666 32.1585 40.3726C32.0702 41.5141 31.6977 42.6169 31.0737 43.5838C30.4496 44.5507 29.5933 45.3522 28.5799 45.9178C27.5237 46.508 26.3292 46.8176 25.1141 46.816C21.2114 46.816 18.0483 43.6901 18.0483 39.8296C18.0483 35.9691 21.2114 32.8432 25.1141 32.8432C25.8529 32.8425 26.5871 32.9567 27.2895 33.1816L27.2997 24.8039C25.1673 24.5333 23.001 24.6998 20.9374 25.2928C18.8738 25.8857 16.9577 26.8924 15.31 28.2492C13.8663 29.4814 12.6525 30.9516 11.7233 32.5937C11.3697 33.1925 10.0356 35.5988 9.87404 39.5042C9.77244 41.7209 10.4502 44.0175 10.7733 44.9666V44.9866C10.9765 45.5455 11.7639 47.4528 13.0472 49.0606C14.082 50.3504 15.3046 51.4834 16.6756 52.4231V52.4031L16.6959 52.4231C20.7511 55.1298 25.2472 54.9522 25.2472 54.9522C26.0255 54.9212 28.6327 54.9522 31.5936 53.5738C34.8775 52.0458 36.7471 49.7693 36.7471 49.7693C37.9415 48.409 38.8912 46.8588 39.5555 45.1852C40.3135 43.228 40.5665 40.8806 40.5665 39.9424V23.0633C40.6681 23.1231 42.0215 24.0024 42.0215 24.0024C42.0215 24.0024 43.9713 25.23 47.0135 26.0295C49.196 26.5984 52.1365 26.7181 52.1365 26.7181V18.5501C51.1062 18.6598 49.0141 18.3405 46.8722 17.2915Z" fill="white"/>
</svg>
