<svg width="588" height="137" viewBox="0 0 588 137" fill="none" xmlns="http://www.w3.org/2000/svg">
<path d="M137.032 63.4454C132.132 64.7231 45.2006 97.5633 2.34773 113.824C1.53401 113.99 0.137185 114.483 1.05963 115.124C2.21267 115.926 13.3895 122.417 21.418 126.353C29.4465 130.289 40.7584 134.677 52.5161 136.814C64.2739 138.951 61.4059 114.35 72.6343 113.007C83.8628 111.664 123.432 117.022 123.432 117.022C123.432 117.022 132.599 114.682 156.974 117.112C173.61 118.77 225.174 100.031 231.522 97.3078C237.87 94.5846 263.262 86.0695 268.984 88.4017C274.706 90.7338 278.922 90.7371 280.609 90.2628C282.296 89.7886 281.852 89.6631 295.251 92.0262C305.971 93.9167 322.426 106.531 329.313 112.601C335.241 117.211 347.326 126.591 348.249 127.233C349.402 128.035 352.329 129.339 361.47 130.021C370.611 130.704 376.207 125.628 378.695 122.051C381.184 118.473 381.15 107.286 381.733 100.553C382.316 93.821 388.086 93.0746 391.725 92.677C395.364 92.2794 407.829 97.47 411.644 99.0247C415.459 100.579 436.882 111.634 440.254 113.063C443.625 114.492 452.23 118.829 454.847 120.283C457.464 121.736 465.713 126.924 469.573 127.778C473.433 128.632 475.653 126.882 478.72 121.328C481.787 115.774 482.641 104.837 483.044 100.907C483.447 96.9782 489.54 81.8155 492.076 75.1598C494.611 68.5041 499.449 68.2076 504.241 68.6117C509.033 69.0159 519.318 80.0116 523.93 83.2189C528.543 86.4261 529.831 85.1256 530.675 83.6996C531.52 82.2736 532.15 72.4628 532.911 65.3052C533.672 58.1476 541.128 56.927 544.369 55.7031C547.609 54.4792 552.758 54.0327 558.707 50.4832C564.657 46.9338 568.391 40.3792 570.257 37.1018C572.124 33.8245 578.481 21.5904 579.504 19.739C580.526 17.8877 583.951 9.10526 585.106 7.52933C586.03 6.26861 587.419 1.99977 587.998 0.0229492C587.05 0.706345 585.075 2.38339 584.755 3.62457C584.354 5.17605 582.041 10.7057 579.817 17.2114C577.592 23.7171 573.862 25.5163 572.707 27.0922C571.552 28.6681 563.116 33.417 554.905 34.6621C546.695 35.9071 534.487 40.7783 532.489 41.4024C530.492 42.0266 526.627 45.9281 528.044 49.6585C529.461 53.3888 529.235 56.8927 526.218 56.9905C523.2 57.0882 509.764 45.915 499.876 38.1233C489.987 30.3317 489.541 32.5839 486.832 34.9095C484.123 37.235 479.365 48.0187 477.408 52.6976C475.451 57.3765 468.378 76.0675 467.443 78.895C466.509 81.7225 464.822 82.1967 459.983 84.871C455.143 87.5454 453.945 87.4443 445.647 87.7132C437.348 87.982 405.894 78.3715 398.53 75.8129C391.166 73.2542 372.575 69.6606 369.425 69.483C366.274 69.3053 364.896 72.0074 365.428 73.109C365.959 74.2107 370.526 78.1188 371.456 80.0467C372.387 81.9746 373.319 81.5249 370.344 83.2996C367.369 85.0743 359.694 82.6656 352.551 81.3585C345.408 80.0514 285.828 60.5828 270.922 55.8908C256.016 51.1988 229.661 46.598 213.198 45.0334C196.736 43.4688 179.734 50.3135 170.278 54.536C160.822 58.7585 143.157 61.8483 137.032 63.4454Z" fill="#252525"/>
</svg>
